<svg width="20" height="19" viewBox="0 0 20 19" fill="none" xmlns="http://www.w3.org/2000/svg">
<path fill-rule="evenodd" clip-rule="evenodd" d="M2.88184 1.75H0.817383V0.25H2.88184C4.22078 0.25 5.36512 1.21434 5.59205 2.53391L5.78768 3.67146H17.7842C18.9405 3.67146 19.7789 4.77295 19.471 5.8875L18.7796 8.38988C18.3305 10.0154 16.8515 11.1412 15.165 11.1412H7.07229L7.11769 11.4052C7.22084 12.005 7.74099 12.4434 8.3496 12.4434H17.4485V13.9434H8.3496C7.01066 13.9434 5.86632 12.979 5.63939 11.6594L4.11375 2.78814C4.0106 2.18834 3.49045 1.75 2.88184 1.75ZM6.81433 9.64122H15.165C16.1769 9.64122 17.0643 8.96575 17.3337 7.99042L18.0251 5.48804C18.0691 5.32881 17.9493 5.17146 17.7842 5.17146H6.04564L6.81433 9.64122Z" fill="white"/>
<path fill-rule="evenodd" clip-rule="evenodd" d="M9.01022 16.7982C9.04959 16.7604 9.05857 16.7261 9.05857 16.6992C9.05857 16.6722 9.04959 16.638 9.01022 16.6002C8.96978 16.5613 8.90536 16.5291 8.81932 16.5291C8.73329 16.5291 8.66887 16.5613 8.62843 16.6002C8.58906 16.638 8.58008 16.6722 8.58008 16.6992C8.58008 16.7261 8.58906 16.7604 8.62843 16.7982C8.66887 16.837 8.73329 16.8693 8.81932 16.8693C8.90536 16.8693 8.96978 16.837 9.01022 16.7982ZM8.81932 18.3693C9.77988 18.3693 10.5586 17.6215 10.5586 16.6992C10.5586 15.7768 9.77988 15.0291 8.81932 15.0291C7.85876 15.0291 7.08008 15.7768 7.08008 16.6992C7.08008 17.6215 7.85876 18.3693 8.81932 18.3693Z" fill="white"/>
<path fill-rule="evenodd" clip-rule="evenodd" d="M16.6626 16.7982C16.7019 16.7604 16.7109 16.7261 16.7109 16.6992C16.7109 16.6722 16.7019 16.638 16.6626 16.6002C16.6221 16.5613 16.5577 16.5291 16.4717 16.5291C16.3856 16.5291 16.3212 16.5613 16.2808 16.6002C16.2414 16.638 16.2324 16.6722 16.2324 16.6992C16.2324 16.7261 16.2414 16.7604 16.2808 16.7982C16.3212 16.837 16.3856 16.8693 16.4717 16.8693C16.5577 16.8693 16.6221 16.837 16.6626 16.7982ZM16.4717 18.3693C17.4322 18.3693 18.2109 17.6215 18.2109 16.6992C18.2109 15.7768 17.4322 15.0291 16.4717 15.0291C15.5111 15.0291 14.7324 15.7768 14.7324 16.6992C14.7324 17.6215 15.5111 18.3693 16.4717 18.3693Z" fill="white"/>
</svg>
